<?xml version="1.0" encoding="UTF-8" standalone="no"?>
<!DOCTYPE svg PUBLIC "-//W3C//DTD SVG 1.1//EN" "http://www.w3.org/Graphics/SVG/1.1/DTD/svg11.dtd">
<svg width="100%" height="100%" viewBox="0 0 382 129" version="1.1" xmlns="http://www.w3.org/2000/svg" xmlns:xlink="http://www.w3.org/1999/xlink" xml:space="preserve" xmlns:serif="http://www.serif.com/" style="fill-rule:evenodd;clip-rule:evenodd;stroke-linejoin:round;stroke-miterlimit:2;">
    <g transform="matrix(1,0,0,1,-0.000488,-0.000488)">
        <g>
            <path d="M64.48,0C28.871,0 0,28.875 0,64.488C0,100.101 28.871,128.976 64.48,128.976C100.088,128.976 128.959,100.101 128.959,64.488C128.959,28.875 100.088,0 64.48,0ZM103.152,90.286C94.779,87.235 86.665,83.963 78.214,81.12C74.06,79.718 70.049,77.874 65.674,77.173C65.272,80.315 63.389,83.067 62.649,86.131C61.416,91.234 60.481,97.751 59.56,103.048C58.833,107.216 58.742,111.591 57.522,115.668C57.405,116.045 57.496,116.538 56.95,116.642C55.237,107.593 54.276,98.335 53.29,89.156C53.082,87.248 52.783,77.472 51.602,76.744C50.953,76.342 49.59,77.134 48.876,77.406C43.398,79.523 35.895,82.963 30.728,85.755C26.652,87.962 22.926,91.117 18.629,92.96C18.603,92.48 18.59,92 18.746,91.532C19.044,90.662 23.198,87.404 24.263,86.339C26.742,83.872 28.871,80.938 31.299,78.432C33.882,75.771 36.907,73.537 39.49,70.837C41.178,69.071 42.58,66.773 44.54,65.15L24.263,46.169C26.561,45.688 27.963,47.221 29.702,47.922C35.868,50.414 42.45,51.661 48.655,54.063C49.616,54.426 50.849,55.776 51.641,54.79L52.173,41.248C53.692,34.03 54.614,26.642 55.003,19.268C55.12,16.97 54.458,14.516 55.419,12.348C58.755,18.709 59.638,26.097 61.559,32.991C63.402,39.573 65.544,46.091 67.401,52.66L69.361,50.817C75.514,43.287 80.473,34.873 86.12,26.98L87.12,26.72L77.254,54.063L103.048,54.907L103.463,55.465C101.412,55.724 99.634,57.205 97.829,58.152C91.416,61.515 84.588,64.254 78.941,68.864L115.575,94.934C111.317,93.713 107.306,91.805 103.165,90.299L103.152,90.286Z" style="fill:rgb(85,17,4);fill-rule:nonzero;"/>
            <path d="M190.674,128.963C155.118,128.963 126.195,100.037 126.195,64.475C126.195,28.914 155.131,0.001 190.674,0.001C226.218,0.001 255.153,28.927 255.153,64.489C255.153,100.05 226.231,128.976 190.674,128.976L190.674,128.963ZM190.674,14.776C163.27,14.776 140.981,37.068 140.981,64.475C140.981,91.883 163.27,114.175 190.674,114.175C218.078,114.175 240.367,91.883 240.367,64.475C240.367,37.068 218.078,14.776 190.674,14.776Z" style="fill:rgb(85,17,4);fill-rule:nonzero;"/>
            <path d="M162.206,83.756C162.27,82.276 162.686,81.107 163.426,80.263C164.166,79.42 165.165,78.991 166.438,78.991C167.074,78.991 167.736,79.095 168.45,79.303C172.318,80.497 176.433,81.523 180.756,82.367C185.092,83.211 189.012,83.639 192.543,83.639C194.802,83.639 196.282,83.198 196.983,82.315C197.684,81.432 198.035,80.679 198.035,80.043C198.1,79.407 197.827,78.602 197.191,77.615C196.555,76.628 195.283,76.096 193.387,76.031C182.677,75.68 174.538,73.551 168.982,69.643C163.413,65.735 160.635,59.802 160.635,51.843C160.635,47.26 161.518,43.456 163.283,40.431C165.048,37.406 167.398,34.965 170.358,33.134C173.318,31.304 176.693,30.005 180.497,29.226C184.3,28.447 188.247,28.058 192.336,28.058C196.633,28.058 200.475,28.408 203.85,29.11C207.226,29.811 210.756,30.797 214.417,32.07C216.248,32.706 217.689,33.797 218.753,35.342C219.805,36.886 220.272,38.652 220.129,40.626L219.921,48.026C219.779,51.129 218.403,52.674 215.806,52.674C215.17,52.674 214.469,52.57 213.69,52.362C209.952,51.168 206.07,50.155 202.02,49.35C197.97,48.545 194.218,48.13 190.765,48.13C188.584,48.13 187.117,48.571 186.377,49.454C185.637,50.337 185.274,51.09 185.274,51.726C185.274,52.362 185.559,53.167 186.118,54.154C186.676,55.141 187.948,55.699 189.921,55.842C200.631,56.193 208.757,58.296 214.326,62.126C219.896,65.969 222.674,71.837 222.674,79.718C222.674,84.444 221.7,88.326 219.766,91.39C217.831,94.454 215.287,96.908 212.158,98.739C209.017,100.569 205.512,101.855 201.643,102.595C197.775,103.335 193.893,103.698 190.025,103.698C186.156,103.698 182.379,103.322 178.718,102.595C175.057,101.855 171.396,100.881 167.736,99.686C165.905,99.05 164.464,97.96 163.4,96.415C162.348,94.87 161.881,93.104 162.024,91.13L162.231,83.73L162.206,83.756Z" style="fill:rgb(85,17,4);fill-rule:nonzero;"/>
            <path d="M317.308,128.963C281.752,128.963 252.829,100.037 252.829,64.475C252.829,28.914 281.752,0.001 317.308,0.001C352.865,0.001 381.788,28.927 381.788,64.489C381.788,100.05 352.865,128.976 317.308,128.976L317.308,128.963ZM317.308,14.776C289.904,14.776 267.615,37.068 267.615,64.475C267.615,91.883 289.904,114.175 317.308,114.175C344.712,114.175 367.002,91.883 367.002,64.475C367.002,37.068 344.712,14.776 317.308,14.776Z" style="fill:rgb(85,17,4);fill-rule:nonzero;"/>
            <path d="M344.414,96.336C344.414,98.738 343.921,100.491 342.934,101.62C341.947,102.75 340.325,103.386 338.079,103.516C336.742,103.659 335.379,103.75 334.016,103.776C332.64,103.815 331.367,103.841 330.212,103.88C329.044,103.918 328.044,103.931 327.2,103.931L325.513,103.931C318.048,103.931 311.83,103.243 306.858,101.867C301.886,100.491 297.914,98.31 294.915,95.311C291.916,92.311 289.813,88.403 288.58,83.574C287.347,78.744 286.737,72.85 286.737,65.878C286.737,58.906 287.347,52.998 288.58,48.181C289.813,43.352 291.929,39.444 294.915,36.445C297.901,33.446 301.886,31.264 306.858,29.888C311.83,28.512 318.035,27.824 325.513,27.824L327.2,27.824C328.044,27.824 329.044,27.837 330.212,27.876C331.38,27.915 332.64,27.941 334.016,27.98C335.392,28.018 336.742,28.109 338.079,28.239C340.338,28.382 341.947,29.018 342.934,30.135C343.921,31.264 344.414,33.03 344.414,35.419L344.414,42.819C344.414,45.078 343.933,46.611 342.986,47.415C342.038,48.22 340.402,48.558 338.079,48.415C335.677,48.207 333.328,48.065 331.004,47.987C328.68,47.922 327.019,47.883 326.032,47.883C323.565,47.883 321.488,48.078 319.801,48.467C318.113,48.857 316.737,49.688 315.686,50.947C314.634,52.219 313.855,54.037 313.362,56.387C312.869,58.75 312.622,61.905 312.622,65.839C312.622,69.773 312.869,72.837 313.362,75.187C313.855,77.549 314.634,79.354 315.686,80.627C316.737,81.899 318.113,82.743 319.801,83.158C321.488,83.587 323.565,83.794 326.032,83.794C327.019,83.794 328.68,83.755 331.004,83.691C333.328,83.626 335.69,83.483 338.079,83.262C340.402,83.119 342.038,83.457 342.986,84.262C343.933,85.067 344.414,86.599 344.414,88.858L344.414,96.336Z" style="fill:rgb(85,17,4);fill-rule:nonzero;"/>
        </g>
    </g>
</svg>
